<svg xmlns="http://www.w3.org/2000/svg" width="1146" height="720" viewBox="0 0 1146 720" fill="none">
  <rect width="1146" height="720" fill="#E9E9E5"/>
  <rect x="72" y="58" width="1002" height="604" rx="30" fill="#FAFAF8" stroke="#CACAC4" stroke-width="2"/>
  <rect x="72" y="58" width="276" height="604" rx="30" fill="#FFF"/>
  <rect x="112" y="104" width="196" height="98" rx="18" fill="#F5F5F2" stroke="#D8D8D2" stroke-width="2"/>
  <text x="132" y="138" fill="#22221E" font-family="Arial, sans-serif" font-size="20" font-weight="700">切割设置</text>
  <rect x="132" y="155" width="66" height="30" rx="8" fill="#1D1D19"/>
  <rect x="212" y="155" width="66" height="30" rx="8" fill="#FFF" stroke="#CBCBC5"/>
  <text x="154" y="176" fill="#FFF" font-family="Arial, sans-serif" font-size="15" font-weight="700">3 × 2</text>
  <text x="232" y="176" fill="#55554F" font-family="Arial, sans-serif" font-size="15" font-weight="700">PNG</text>
  <rect x="112" y="226" width="196" height="122" rx="18" fill="#1D1D19"/>
  <text x="132" y="262" fill="#999992" font-family="Arial, sans-serif" font-size="16">将生成</text>
  <text x="132" y="310" fill="#FFF" font-family="Arial, sans-serif" font-size="40" font-weight="700">6 张图片</text>
  <rect x="132" y="326" width="156" height="2" rx="1" fill="#FF6846"/>
  <rect x="390" y="102" width="640" height="516" rx="22" fill="#171713"/>
  <rect x="422" y="134" width="576" height="452" rx="12" fill="#F8F8F5"/>
  <rect x="444" y="156" width="532" height="408" fill="#DDEAF0"/>
  <circle cx="710" cy="360" r="122" fill="#FF6846"/>
  <circle cx="710" cy="360" r="78" fill="#F8F8F5"/>
  <path d="M670 360L698 388L754 330" stroke="#171713" stroke-width="18" stroke-linecap="round" stroke-linejoin="round"/>
  <rect x="444" y="156" width="532" height="408" stroke="#FFF" stroke-width="4"/>
  <path d="M621.333 156V564M798.667 156V564M444 360H976" stroke="#FFF" stroke-width="4"/>
  <rect x="436" y="148" width="16" height="16" rx="8" fill="#FFF" stroke="#1D1D19" stroke-width="2"/>
  <rect x="968" y="556" width="16" height="16" rx="8" fill="#FFF" stroke="#1D1D19" stroke-width="2"/>
</svg>
